<svg id="圖層_1" data-name="圖層 1" xmlns="http://www.w3.org/2000/svg" viewBox="0 0 92.15 37.53"><defs><style>.cls-1{fill:red;}.cls-2{fill:#009;}</style></defs><title>logo-0</title><polygon class="cls-1" points="26.57 0 25.52 8.38 34.75 0.07 26.57 0"/><path class="cls-2" d="M75.73,25.57H71.36l.21-1.8a8.88,8.88,0,0,1-.81.88,4.45,4.45,0,0,1-.69.52,4.78,4.78,0,0,1-.81.39,5.4,5.4,0,0,1-1,.26,6.9,6.9,0,0,1-1.12.09,5.72,5.72,0,0,1-1.69-.24,3,3,0,0,1-1.33-.82,2.54,2.54,0,0,1-.68-1.31,5.69,5.69,0,0,1,0-1.71,4.81,4.81,0,0,1,.13-.74l.56-3q.29-1.64.6-3.63.2-1.22.33-2.31h4.67l-1,5q-.22,1.14-.28,1.55l-.08.56a2.44,2.44,0,0,0,.26,1.86,1.42,1.42,0,0,0,1.11.49,1.86,1.86,0,0,0,.57-.09,2.53,2.53,0,0,0,.57-.26,2.37,2.37,0,0,0,.45-.39,3.13,3.13,0,0,0,.42-.6,5,5,0,0,0,.39-.93,16.81,16.81,0,0,0,.42-1.76q.14-.77.46-2.68l.43-2.74H78q-.68,3.33-1.21,6.34T75.73,25.57Z" transform="translate(-29.21 -3.62)"/><path class="cls-2" d="M78.27,25.32q0-.58.06-1.21t.07-1.75v-.94a14.74,14.74,0,0,0,1.83.74,4.9,4.9,0,0,0,1.45.24,3.07,3.07,0,0,0,.93-.12,1.18,1.18,0,0,0,.55-.34.88.88,0,0,0,.22-.46.74.74,0,0,0-.07-.41,2.18,2.18,0,0,0-.48-.56q-.84-.79-1.48-1.43a6.37,6.37,0,0,1-.94-1.14A3.36,3.36,0,0,1,80,16.86a3.66,3.66,0,0,1,0-1.19,4.45,4.45,0,0,1,.8-2,3.77,3.77,0,0,1,1.79-1.37,7.46,7.46,0,0,1,2.66-.43,22,22,0,0,1,4,.47L89,16a6,6,0,0,0-2.61-.63,3.22,3.22,0,0,0-1.35.21.81.81,0,0,0-.49.65.79.79,0,0,0,0,.28.77.77,0,0,0,.13.28,2,2,0,0,0,.26.3l.78.7,1,.91a5.25,5.25,0,0,1,.85,1.07,3.47,3.47,0,0,1,.39,1,3.69,3.69,0,0,1,0,1.17,4,4,0,0,1-2,3,5.86,5.86,0,0,1-1.83.73,9.38,9.38,0,0,1-2,.2,13.18,13.18,0,0,1-1.66-.13A20.48,20.48,0,0,1,78.27,25.32Z" transform="translate(-29.21 -3.62)"/><path class="cls-2" d="M98.81,21.71q-.34,1.1-.63,2.15l-.45,1.6a17,17,0,0,1-1.83.37,10.55,10.55,0,0,1-1.25.08,6.92,6.92,0,0,1-1.72-.19A2.29,2.29,0,0,1,91.75,25a2.25,2.25,0,0,1-.55-1.16,5,5,0,0,1,0-1.39,2.8,2.8,0,0,1,.07-.47q.07-.34.27-1.49L92.36,16h-1.8q.17-.91.4-2.39l.19-1.22h1.91q.14-.6.5-2.64l2-.46q.56-.12,2.39-.6-.3,1.72-.58,3.7H100q-.43,2.73-.54,3.61H96.81l-.54,3.28c-.08.49-.12.8-.14.94a3.75,3.75,0,0,0,0,1,.84.84,0,0,0,.35.6,1.17,1.17,0,0,0,.65.18,3.84,3.84,0,0,0,.58,0A9.51,9.51,0,0,0,98.81,21.71Z" transform="translate(-29.21 -3.62)"/><path class="cls-2" d="M68.67,40.75l1.11-6.32.8-4.95.29-2.12h4.38L75,29.1a10.28,10.28,0,0,1,.71-.81,4.31,4.31,0,0,1,.67-.54,4.06,4.06,0,0,1,.79-.41A5.23,5.23,0,0,1,78,27.1,5.36,5.36,0,0,1,79,27a4.75,4.75,0,0,1,1.07.11,3.66,3.66,0,0,1,.82.28,2.47,2.47,0,0,1,.57.39,2.28,2.28,0,0,1,.4.51,5.21,5.21,0,0,1,.36.82,5.47,5.47,0,0,1,1.23-1.27,4.38,4.38,0,0,1,1.37-.64,5.7,5.7,0,0,1,1.51-.2,5.1,5.1,0,0,1,1.85.33,2.56,2.56,0,0,1,1.32,1.13,3.28,3.28,0,0,1,.31,2.09q-.08.6-.3,1.82t-.73,4.19q-.51,3-.67,4.17H83.57q.33-1.67.76-4.18t.56-3.48a3.41,3.41,0,0,0,0-1.27.94.94,0,0,0-.37-.57,1.09,1.09,0,0,0-.58-.15,1.3,1.3,0,0,0-.62.15,1.71,1.71,0,0,0-.55.49,4.49,4.49,0,0,0-.59,1.1,10,10,0,0,0-.42,1.57q-.22,1.08-.48,2.83l-.53,3.52H76.14q.25-1.17.74-3.92t.6-3.69a3.67,3.67,0,0,0,0-1.18,1.33,1.33,0,0,0-.31-.63.82.82,0,0,0-.63-.24,1.27,1.27,0,0,0-.82.3,2.84,2.84,0,0,0-.68.87,6.11,6.11,0,0,0-.53,1.55q-.22,1-.56,3t-.68,3.94h-4.6Z" transform="translate(-29.21 -3.62)"/><path class="cls-2" d="M93,31.18q.38-1.3.5-1.79l.38-1.54A25.51,25.51,0,0,1,99.65,27a8,8,0,0,1,2.45.35,3,3,0,0,1,1.63,1.12,3.15,3.15,0,0,1,.36,2.22q-.09.74-.59,3.31t-1.11,6.74H97.83q.34-1.44,1.09-6a7.93,7.93,0,0,1-.73.34l-.91.31q-.65.21-1,.35a2.6,2.6,0,0,0-.66.37,1.68,1.68,0,0,0-.43.46,1.35,1.35,0,0,0-.17.52.93.93,0,0,0,.22.76,1.21,1.21,0,0,0,1,.32,3.32,3.32,0,0,0,.53,0,4.77,4.77,0,0,0,.79-.23q-.46,1-1.17,3a10.66,10.66,0,0,1-1.9.18,5.16,5.16,0,0,1-2.33-.45,2.61,2.61,0,0,1-1.28-1.46,4.13,4.13,0,0,1-.26-2A4.22,4.22,0,0,1,91,36a4.89,4.89,0,0,1,.74-1.15,5.15,5.15,0,0,1,1.07-1,7.18,7.18,0,0,1,1.58-.75,19.07,19.07,0,0,1,2.47-.67q.62-.13,1.14-.28a5.11,5.11,0,0,0,.75-.26,1.43,1.43,0,0,0,.38-.26,1.15,1.15,0,0,0,.23-.31,1.13,1.13,0,0,0,.1-.35.79.79,0,0,0-.27-.77,1.68,1.68,0,0,0-1.05-.27A14,14,0,0,0,93,31.18Z" transform="translate(-29.21 -3.62)"/><path class="cls-2" d="M104.95,40.75l.77-4.5,2.4-15.65,1.15-8.43H114l-1.07,6.43-2.4,15.83-.88,6.32h-4.71Z" transform="translate(-29.21 -3.62)"/><path class="cls-2" d="M112.27,40.75l.77-4.5,2.4-15.65,1.18-8.42h4.74l-1.09,6.42-2.4,15.83L117,40.75h-4.72Z" transform="translate(-29.21 -3.62)"/><path class="cls-1" d="M39,39.4c.18-2.33.33-4.65.45-6.88l.15-3,2.71,1.3a17.76,17.76,0,0,0,2.86,1.08,7.48,7.48,0,0,0,1.81.24h0a3.15,3.15,0,0,0,1.37-.3,1.8,1.8,0,0,0,.6-.47,4.1,4.1,0,0,0,.62-1.28A68.06,68.06,0,0,0,51,23c.19-1.18.36-2.3.52-3.36H45.21l1-8.15a15,15,0,0,0-17,14.93,14.73,14.73,0,0,0,9.72,14.08Z" transform="translate(-29.21 -3.62)"/><path class="cls-2" d="M60.33,11.92h0L48.2,11.83l-.73,5.86h6.34c-.25,1.72-.53,3.59-.86,5.64a69.71,69.71,0,0,1-1.45,7.3,6.17,6.17,0,0,1-1,2,3.8,3.8,0,0,1-1.28,1,5.11,5.11,0,0,1-2.25.5,9.53,9.53,0,0,1-2.33-.31,19.74,19.74,0,0,1-3.18-1.2Q41.29,36,41,39.56a29.14,29.14,0,0,0,7.55,1.14A14,14,0,0,0,52,40.29a12.09,12.09,0,0,0,2.86-1.12,8.08,8.08,0,0,0,1.76-1.25,6.67,6.67,0,0,0,1.08-1.37,8.65,8.65,0,0,0,.87-2,38.49,38.49,0,0,0,.92-4.84q.67-4.59,1.38-8.66l1.7-9.13Z" transform="translate(-29.21 -3.62)"/></svg>