<svg id="圖層_1" data-name="圖層 1" xmlns="http://www.w3.org/2000/svg" viewBox="0 0 50 50"><defs><style>.cls-1{fill:#fff;}</style></defs><title>panel-w</title><path class="cls-1" d="M35.5,42.8H15.6c-4,0-7.2-4.3-7.2-9.7V33L9.8,16.6C9.8,11.3,13,7,17,7H34.1c3.9,0,7.1,4.3,7.2,9.6l1.4,16.5C42.6,38.5,39.4,42.8,35.5,42.8ZM11.4,33.2c0,3.6,1.9,6.6,4.2,6.6H35.5c2.3,0,4.2-3,4.2-6.6L38.3,16.7c0-3.6-1.9-6.7-4.2-6.7H17c-2.3,0-4.2,3.1-4.2,6.7v.1Z"/><path class="cls-1" d="M25.5,23.5c-5,0-9-4.4-9-9.8a1.5,1.5,0,0,1,3,0c0,3.8,2.7,6.8,6,6.8s6-3,6-6.8a1.5,1.5,0,0,1,3,0C34.5,19.1,30.5,23.5,25.5,23.5Z"/></svg>