<svg id="圖層_1" data-name="圖層 1" xmlns="http://www.w3.org/2000/svg" viewBox="0 0 50 50"><defs><style>.cls-1{fill:#fff;}</style></defs><title>panel-w</title><path class="cls-1" d="M15.6,42.8a2.89,2.89,0,0,1-2.9-3.1v-.4L14.3,30,7.5,23.4a3,3,0,0,1,.1-4.2,2.75,2.75,0,0,1,1.5-.8L18.5,17l4.1-8.4a3,3,0,0,1,4.1-1.2,3.45,3.45,0,0,1,1.2,1.2l4.2,8.5,9.3,1.3a3,3,0,0,1,2.4,3.5,2.75,2.75,0,0,1-.8,1.5L36.2,30l1.6,9.3a3,3,0,0,1-2.6,3.4,2.49,2.49,0,0,1-1.7-.3L25.1,38l-8.3,4.4A1.75,1.75,0,0,1,15.6,42.8ZM25.3,10l-4.1,8.5A2.8,2.8,0,0,1,19,20.1L9.6,21.5,16.4,28a3.22,3.22,0,0,1,.9,2.6l-1.6,9.3L24,35.5a3.42,3.42,0,0,1,2.8,0l8.4,4.4-1.7-9.3a2.84,2.84,0,0,1,.9-2.6l6.8-6.6-9.3-1.3a2.86,2.86,0,0,1-2.2-1.6Z"/></svg>