<svg id="圖層_1" data-name="圖層 1" xmlns="http://www.w3.org/2000/svg" xmlns:xlink="http://www.w3.org/1999/xlink" viewBox="0 0 200 50"><defs><style>.cls-1{fill:none;}.cls-2{fill:#c00;}.cls-3{clip-path:url(#clip-path);}.cls-4{fill:#a30000;}</style><clipPath id="clip-path"><path class="cls-1" d="M187,3a10,10,0,0,0-10,10V33a10,10,0,0,1-10,10H34A10,10,0,0,1,24,33V13A10,10,0,0,0,14,3Z"/></clipPath></defs><title>tag</title><path class="cls-2" d="M187,3a10,10,0,0,0-10,10V33a10,10,0,0,1-10,10H34A10,10,0,0,1,24,33V13A10,10,0,0,0,14,3Z"/><g class="cls-3"><polygon class="cls-4" points="191 18 71 69 195 64 191 18"/></g></svg>