<svg id="圖層_1" data-name="圖層 1" xmlns="http://www.w3.org/2000/svg" viewBox="0 0 50 70"><defs><style>.cls-1{fill:#7f0000;}.cls-2{fill:#c00;}.cls-3{fill:#fff;}</style></defs><title>dis</title><polygon class="cls-1" points="9 0 0 10 50 10 9 0"/><polygon class="cls-2" points="50 70 29.5 60 9 70 9 0 50 0 50 70"/><path class="cls-3" d="M16.42,16.06q0-.47.44-.47h1.37a.4.4,0,0,1,.45.45v.63a.33.33,0,0,0,.38.38h.5a.4.4,0,0,1,.45.45v.87a.4.4,0,0,1-.45.45H19a.33.33,0,0,0-.38.38v2.4q0,.36.41.21l.47-.17q.45-.15.45.3v1.2a.61.61,0,0,1-.45.62l-.51.18a.55.55,0,0,0-.36.53v4.29q-.06,1-1.25,1.29H15.88a.48.48,0,0,1-.53-.45l-.12-.75q-.09-.57.27-.57.87.18.92-.83V25.24q0-.38-.48-.23t-.9.32q-.5.18-.5-.24V23.84a.59.59,0,0,1,.45-.6l1-.36a.5.5,0,0,0,.41-.48V19.2a.33.33,0,0,0-.38-.38h-1a.4.4,0,0,1-.45-.45v-.87a.4.4,0,0,1,.45-.45h1a.33.33,0,0,0,.38-.38Zm10.12-.33q0-.15.45-.15h1.26a.4.4,0,0,1,.45.45,3.31,3.31,0,0,1-.06,1,1.14,1.14,0,0,1-1.05.8h-3.8a.33.33,0,0,0-.38.38v1.44a.33.33,0,0,0,.38.38h4.76a.4.4,0,0,1,.45.45v.87a.4.4,0,0,1-.45.45H28a.33.33,0,0,0-.37.38v7.46a.4.4,0,0,1-.45.45H25.82a.4.4,0,0,1-.45-.45V22.15a.33.33,0,0,0-.38-.38h-1.2a.33.33,0,0,0-.38.38v6.77A1.17,1.17,0,0,1,22.68,30a5.05,5.05,0,0,1-1.53.09.48.48,0,0,1-.53-.45l-.12-.75q-.09-.57.1-.57.72,0,.56-.72V16.48a.4.4,0,0,1,.45-.45h4.22A.59.59,0,0,0,26.54,15.73Z"/><path class="cls-3" d="M32.22,16.14q0-.48.42-.48H34a.4.4,0,0,1,.45.45v.68a.33.33,0,0,0,.38.38h.62a.4.4,0,0,1,.45.45v.89a.4.4,0,0,1-.45.45h-.62a.33.33,0,0,0-.38.38v2.24q0,.38.48.24l.42-.14q.54-.16.54.29v1.32a.57.57,0,0,1-.45.59l-.63.21a.55.55,0,0,0-.36.53v4.19q-.06,1-1.25,1.28H31.32a.48.48,0,0,1-.53-.45l-.12-.75q-.09-.57.36-.57a1.23,1.23,0,0,0,1-.21.73.73,0,0,0,.17-.63V25.3q0-.37-.48-.23-.65.18-1.31.41-.45.15-.45-.3V23.84a.57.57,0,0,1,.45-.59q.69-.25,1.43-.47a.52.52,0,0,0,.36-.51v-3a.33.33,0,0,0-.38-.38H30.49A.4.4,0,0,1,30,18.5v-.89a.4.4,0,0,1,.45-.45h1.35a.33.33,0,0,0,.38-.38Zm4.8.17c0-.31.14-.47.44-.47H43.7a.4.4,0,0,1,.45.45v12.6q0,1-1.16,1.17H37.47a.4.4,0,0,1-.45-.45ZM41.89,18a.33.33,0,0,0-.37-.38H39.65a.33.33,0,0,0-.38.38v9.91a.33.33,0,0,0,.38.38H41.2q.83.07.69-.74Z"/><path class="cls-3" d="M14.61,40.52q0-.47.44-.47H28.55a.4.4,0,0,1,.45.45V41a.4.4,0,0,1-.45.45H22.17a.33.33,0,0,0-.38.38V46.6a.33.33,0,0,0,.38.38,1.91,1.91,0,0,0,1.89-.69.72.72,0,0,0,0-.9l-.37-.56q-.29-.45.17-.45h1.41a1.06,1.06,0,0,0,.75-.45q.39-.44,0-.44H23.16a.4.4,0,0,1-.45-.45v-.45a.4.4,0,0,1,.45-.45h5.07a.4.4,0,0,1,.45.45v1a1.38,1.38,0,0,1-.39.9q-.48.53-.92,1.05a.66.66,0,0,0,0,.9A1,1,0,0,0,28,47h.45a.4.4,0,0,1,.45.45v.63a.4.4,0,0,1-.45.45H27.25a2.7,2.7,0,0,1-1.2-.42.57.57,0,0,0-.86,0,2.1,2.1,0,0,1-1.1.45H20q-.45,0-.45-.2t-.38-.22H15.06a.4.4,0,0,1-.45-.45V47q0-.45.32-.45t.33-.37V41.86q0-.37-.33-.37T14.61,41Zm.5-5.71q0-.47.44-.47H28a.4.4,0,0,1,.45.45v3.38a1.13,1.13,0,0,1-1.14,1.14H15.55a.4.4,0,0,1-.45-.45ZM26.17,36q0-.45-.38-.45H17.73q-.38,0-.38.44t.38.44h8Q26.15,36.41,26.17,36Zm0,1.58q0-.23-.36-.23H17.73q-.38,0-.38.39t.38.41h7.72Q26.12,38.3,26.15,37.56Zm-6.61,4.35c0-.29-.13-.44-.38-.44H17.82q-.37,0-.37.42c0,.29.13.44.38.44h1.35Q19.54,42.34,19.55,41.92Zm0,2q0-.44-.39-.43H17.82q-.37,0-.37.43c0,.29.13.44.38.44h1.35C19.42,44.39,19.55,44.25,19.55,44Zm0,2.12q0-.51-.35-.51H17.82q-.37,0-.37.48t.38.5h1.35Q19.54,46.54,19.55,46.07Z"/><path class="cls-3" d="M32.17,34.62a1,1,0,0,1,.78-.51h1.7q.45,0,.3.23t.21.27h8.39a.4.4,0,0,1,.45.45v.62a1.28,1.28,0,0,1-.21.75q-1.31,1.8-2.57,3.6a1.81,1.81,0,0,1-1.37,1H35.31a.76.76,0,0,0-.63.45q-.53.65.11.53H43.6a.4.4,0,0,1,.45.45V43a1.27,1.27,0,0,1-.21.75q-1.41,2.1-2.88,4.2a1.59,1.59,0,0,1-1.16.6h-9a.5.5,0,0,1-.54-.45l-.12-.77c-.05-.3.08-.45.38-.45h4.88q.41,0-.06-.48L34.14,45q-.42-.44,0-.44H36a1.25,1.25,0,0,1,.89.45q.57.63,1.25,1.32c.3.3.51.45.63.44s.41-.12.56-.44L41,44c.21-.3.19-.45-.06-.45H34a.7.7,0,0,0-.6.45,1.53,1.53,0,0,1-1.31,1.17H30.75a.5.5,0,0,1-.54-.45,6.52,6.52,0,0,1-.14-.75c-.06-.3.09-.45.45-.45a1,1,0,0,0,.81-.57l.78-1.52Q32.34,41,32,41H30.78a.48.48,0,0,1-.53-.45,6.51,6.51,0,0,1-.14-.75q-.07-.45.38-.45h4.89c.27,0,.26-.16,0-.48s-.81-.88-1.19-1.32q-.36-.37.06-.37h1.94a1.16,1.16,0,0,1,.86.45L38.25,39q.36.38.55.33c.18,0,.38-.2.6-.51l1.49-2.15q.27-.39-.14-.39H34a.86.86,0,0,0-.68.45,1.83,1.83,0,0,1-1.49,1.05H30.75a.5.5,0,0,1-.54-.45,6.51,6.51,0,0,1-.14-.75q-.09-.45.36-.45a1.22,1.22,0,0,0,.77-.17,2.42,2.42,0,0,0,.57-.72A7.2,7.2,0,0,1,32.17,34.62Z"/></svg>